<svg width="38" height="36" viewBox="0 0 38 36" fill="none" xmlns="http://www.w3.org/2000/svg">
<path d="M26.75 5.62963C26.75 5.43317 26.6677 5.24476 26.5212 5.10584C26.3747 4.96693 26.176 4.88889 25.9688 4.88889H22.0625C20.0955 4.79598 18.1697 5.44502 16.7058 6.69419C15.2419 7.94336 14.359 9.6911 14.25 11.5556V15.5556H10.3438C10.1365 15.5556 9.93784 15.6336 9.79132 15.7725C9.64481 15.9114 9.5625 16.0998 9.5625 16.2963V20.1481C9.5625 20.3446 9.64481 20.533 9.79132 20.6719C9.93784 20.8108 10.1365 20.8889 10.3438 20.8889H14.25V30.8148C14.25 31.0113 14.3323 31.1997 14.4788 31.3386C14.6253 31.4775 14.824 31.5556 15.0312 31.5556H19.7188C19.926 31.5556 20.1247 31.4775 20.2712 31.3386C20.4177 31.1997 20.5 31.0113 20.5 30.8148V20.8889H24.5938C24.7675 20.8913 24.9371 20.8386 25.0758 20.7394C25.2144 20.6401 25.3142 20.4998 25.3594 20.3407L26.4844 16.4889C26.5155 16.3794 26.5196 16.2647 26.4966 16.1535C26.4735 16.0422 26.4239 15.9375 26.3514 15.8474C26.279 15.7572 26.1857 15.684 26.0787 15.6334C25.9717 15.5828 25.8539 15.5562 25.7344 15.5556H20.5V11.5556C20.5389 11.1889 20.7205 10.8491 21.0094 10.6025C21.2983 10.356 21.6738 10.2204 22.0625 10.2222H25.9688C26.176 10.2222 26.3747 10.1442 26.5212 10.0053C26.6677 9.86635 26.75 9.67794 26.75 9.48148V5.62963Z" fill="#9C1B1B"/>
</svg>
