<svg width="22" height="25" viewBox="0 0 22 25" fill="none" xmlns="http://www.w3.org/2000/svg">
<path d="M19.8252 19.0211C19.1979 18.0208 18.265 15.2329 18.265 11.6188C18.265 9.6025 17.3945 7.6688 15.8449 6.24308C14.2953 4.81735 12.1936 4.01639 10.0021 4.01639C7.81066 4.01639 5.70895 4.81735 4.15936 6.24308C2.60976 7.6688 1.7392 9.6025 1.7392 11.6188C1.7392 15.2329 0.805278 18.0208 0.177949 19.0161C0.0622323 19.1985 0.000853883 19.4057 8.84511e-06 19.6169C-0.000836193 19.828 0.0588823 20.0357 0.173136 20.2188C0.28739 20.402 0.452135 20.5542 0.650744 20.66C0.849352 20.7659 1.07479 20.8216 1.30431 20.8217H6.11311C6.22163 21.7007 6.67807 22.5123 7.39534 23.1015C8.11262 23.6907 9.04055 24.0164 10.0021 24.0164C10.9637 24.0164 11.8916 23.6907 12.6089 23.1015C13.3262 22.5123 13.7826 21.7007 13.8911 20.8217H18.6999C18.9286 20.8209 19.153 20.7649 19.3506 20.6593C19.5483 20.5536 19.7124 20.402 19.8264 20.2197C19.9403 20.0373 20.0002 19.8306 20 19.6202C19.9998 19.4099 19.9395 19.2033 19.8252 19.0211ZM10.0021 23.2224C9.27014 23.2224 8.56269 22.9796 8.00939 22.5387C7.45609 22.0978 7.09399 21.4882 6.98942 20.8217H13.0148C12.9103 21.4882 12.5481 22.0978 11.9948 22.5387C11.4415 22.9796 10.7341 23.2224 10.0021 23.2224ZM19.075 19.8214C19.0378 19.8825 18.9835 19.9332 18.9177 19.9684C18.852 20.0036 18.7771 20.0219 18.701 20.0214H1.30431C1.22822 20.0219 1.15337 20.0036 1.08758 19.9684C1.02179 19.9332 0.96748 19.8825 0.930309 19.8214C0.892139 19.7605 0.872045 19.6915 0.872045 19.6213C0.872045 19.5511 0.892139 19.4821 0.930309 19.4212C1.73921 18.1378 2.60899 15.1519 2.60899 11.6188C2.60899 9.81474 3.3879 8.08459 4.77438 6.80894C6.16087 5.53329 8.04134 4.81664 10.0021 4.81664C11.9629 4.81664 13.8434 5.53329 15.2299 6.80894C16.6163 8.08459 17.3953 9.81474 17.3953 11.6188C17.3953 15.1509 18.265 18.1378 19.0739 19.4212C19.1123 19.482 19.1325 19.5509 19.1327 19.6212C19.1329 19.6914 19.113 19.7604 19.075 19.8214Z" fill="#F0E8E8"/>
<ellipse cx="16.5" cy="5.7841" rx="5.5" ry="5.57744" fill="#9C1B1B"/>
</svg>
