<svg width="100" height="100" viewBox="0 0 100 100" fill="none" xmlns="http://www.w3.org/2000/svg">
<path fill-rule="evenodd" clip-rule="evenodd" d="M30.7143 42.1429H11.4286C9.72361 42.1429 8.08848 41.4656 6.88288 40.26C5.67729 39.0544 5 37.4193 5 35.7143V16.4286C5 14.7236 5.67729 13.0885 6.88288 11.8829C8.08848 10.6773 9.72361 10 11.4286 10H30.7143C32.4192 10 34.0544 10.6773 35.26 11.8829C36.4656 13.0885 37.1429 14.7236 37.1429 16.4286V35.7143C37.1429 37.4193 36.4656 39.0544 35.26 40.26C34.0544 41.4656 32.4192 42.1429 30.7143 42.1429ZM56.4286 14.8214C55.1498 14.8214 53.9235 15.3294 53.0193 16.2336C52.1151 17.1378 51.6071 18.3641 51.6071 19.6429C51.6071 20.9216 52.1151 22.1479 53.0193 23.0521C53.9235 23.9563 55.1498 24.4643 56.4286 24.4643H61.25V69.2136C63.5791 66.9355 66.5453 65.4187 69.7557 64.8642C72.9661 64.3097 76.2693 64.7436 79.2276 66.1084C82.1859 67.4733 84.6597 69.7046 86.3215 72.507C87.9832 75.3093 88.7544 78.5503 88.5329 81.8007C92.5636 80.3864 95 76.2529 95 71.0714C95 58.6836 84.8429 47.7936 70.8929 47.0093V40.8507C72.3071 41.6736 73.9593 42.1429 75.7143 42.1429H82.1429C82.9953 42.1429 83.8129 41.8042 84.4157 41.2014C85.0185 40.5986 85.3571 39.7811 85.3571 38.9286V26.0714C85.3571 25.2189 85.0185 24.4014 84.4157 23.7986C83.8129 23.1958 82.9953 22.8571 82.1429 22.8571H75.7143C73.9593 22.8571 72.3071 23.3264 70.8929 24.1429V19.6429C70.8929 18.3641 70.3849 17.1378 69.4807 16.2336C68.5765 15.3294 67.3501 14.8214 66.0714 14.8214H56.4286ZM56.4929 82.3214C56.1488 78.9701 56.871 75.5956 58.5564 72.6786H58.0357C56.757 72.6786 55.5306 72.1706 54.6264 71.2664C53.7223 70.3622 53.2143 69.1359 53.2143 67.8571V64.6429C53.2143 62.3213 52.757 60.0224 51.8686 57.8776C50.9802 55.7327 49.678 53.7838 48.0364 52.1422C46.3947 50.5006 44.4459 49.1984 42.301 48.31C40.1561 47.4216 37.8573 46.9643 35.5357 46.9643H22.6786C17.9899 46.9643 13.4933 48.8268 10.1779 52.1422C6.86256 55.4576 5 59.9542 5 64.6429L5 77.5C5 80.1614 7.16 82.3214 9.82143 82.3214H11.4929C11.2685 80.0859 11.5152 77.8281 12.217 75.6938C12.9188 73.5595 14.0602 71.5959 15.5675 69.9298C17.0748 68.2636 18.9146 66.9319 20.9682 66.0205C23.0218 65.109 25.2436 64.6381 27.4904 64.6381C29.7371 64.6381 31.959 65.109 34.0126 66.0205C36.0662 66.9319 37.9059 68.2636 39.4132 69.9298C40.9205 71.5959 42.0619 73.5595 42.7637 75.6938C43.4655 77.8281 43.7122 80.0859 43.4879 82.3214H56.4929ZM17.8443 80.7079C17.8443 83.267 18.8609 85.7213 20.6705 87.5309C22.4801 89.3405 24.9344 90.3571 27.4936 90.3571C30.0527 90.3571 32.5071 89.3405 34.3166 87.5309C36.1262 85.7213 37.1429 83.267 37.1429 80.7079C37.1429 78.1487 36.1262 75.6944 34.3166 73.8848C32.5071 72.0752 30.0527 71.0586 27.4936 71.0586C24.9344 71.0586 22.4801 72.0752 20.6705 73.8848C18.8609 75.6944 17.8443 78.1487 17.8443 80.7079ZM62.8443 80.7079C62.8443 83.267 63.8609 85.7213 65.6705 87.5309C67.4801 89.3405 69.9344 90.3571 72.4936 90.3571C75.0527 90.3571 77.5071 89.3405 79.3166 87.5309C81.1262 85.7213 82.1429 83.267 82.1429 80.7079C82.1429 78.1487 81.1262 75.6944 79.3166 73.8848C77.5071 72.0752 75.0527 71.0586 72.4936 71.0586C69.9344 71.0586 67.4801 72.0752 65.6705 73.8848C63.8609 75.6944 62.8443 78.1487 62.8443 80.7079Z" fill="#F0E8E8"/>
</svg>
