<svg width="43" height="40" viewBox="0 0 43 40" fill="none" xmlns="http://www.w3.org/2000/svg">
<path d="M20.7861 12.8749C19.3607 12.8749 17.9673 13.2757 16.7821 14.0265C15.5969 14.7774 14.6732 15.8446 14.1277 17.0932C13.5822 18.3419 13.4395 19.7158 13.7176 21.0414C13.9957 22.3669 14.6821 23.5845 15.69 24.5401C16.6979 25.4958 17.9821 26.1466 19.3801 26.4103C20.7781 26.6739 22.2272 26.5386 23.5441 26.0214C24.8611 25.5042 25.9866 24.6284 26.7786 23.5046C27.5705 22.3809 27.9932 21.0597 27.9932 19.7082C27.9955 18.8103 27.8106 17.9207 27.4493 17.0906C27.0879 16.2606 26.5571 15.5064 25.8874 14.8714C25.2177 14.2365 24.4223 13.7332 23.5469 13.3906C22.6714 13.048 21.7332 12.8727 20.7861 12.8749ZM20.7861 24.1582C19.8579 24.1582 18.9505 23.8972 18.1786 23.4083C17.4068 22.9193 16.8053 22.2243 16.45 21.4112C16.0948 20.598 16.0019 19.7033 16.183 18.8401C16.364 17.9769 16.811 17.184 17.4674 16.5616C18.1238 15.9393 18.9601 15.5154 19.8705 15.3437C20.7809 15.172 21.7246 15.2602 22.5822 15.597C23.4398 15.9338 24.1728 16.5042 24.6885 17.2359C25.2042 17.9677 25.4795 18.8281 25.4795 19.7082C25.4795 20.8885 24.985 22.0203 24.1048 22.8549C23.2247 23.6894 22.0309 24.1582 20.7861 24.1582ZM29.9795 12.5916C29.9795 12.9212 29.8764 13.2434 29.6832 13.5175C29.4901 13.7916 29.2156 14.0052 28.8944 14.1314C28.5732 14.2575 28.2197 14.2905 27.8787 14.2262C27.5378 14.1619 27.2246 14.0032 26.9787 13.7701C26.7329 13.537 26.5655 13.24 26.4976 12.9167C26.4298 12.5934 26.4646 12.2583 26.5977 11.9538C26.7307 11.6492 26.956 11.3889 27.2451 11.2058C27.5342 11.0227 27.874 10.9249 28.2217 10.9249C28.6879 10.9249 29.135 11.1005 29.4646 11.4131C29.7943 11.7256 29.9795 12.1495 29.9795 12.5916ZM34.7432 14.2582C34.7943 12.1863 33.9792 10.1792 32.4756 8.6749C30.8975 7.23105 28.7796 6.43983 26.5869 6.4749C24.3018 6.3749 17.2705 6.3749 14.9854 6.4749C12.8008 6.43005 10.6853 7.2024 9.09668 8.6249C7.59311 10.1292 6.77797 12.1363 6.8291 14.2082C6.72363 16.3749 6.72363 23.0416 6.8291 25.2082C6.77797 27.2802 7.59311 29.2872 9.09668 30.7916C10.6853 32.2141 12.8008 32.9864 14.9854 32.9416C17.3057 33.0749 24.2666 33.0749 26.5869 32.9416C28.7722 32.99 30.889 32.2172 32.4756 30.7916C33.9792 29.2872 34.7943 27.2802 34.7432 25.2082C34.8486 23.0416 34.8486 16.3749 34.7432 14.2082V14.2582ZM31.7549 27.5916C31.5162 28.1648 31.1559 28.6854 30.6963 29.1212C30.2367 29.557 29.6876 29.8986 29.083 30.1249C26.3542 30.648 23.5645 30.8273 20.7861 30.6582C18.0136 30.8276 15.2297 30.6483 12.5068 30.1249C11.9023 29.8986 11.3531 29.557 10.8935 29.1212C10.4339 28.6854 10.0736 28.1648 9.83496 27.5916C9.09668 25.8249 9.25488 21.6582 9.25488 19.7249C9.25488 17.7916 9.09668 13.6082 9.83496 11.8582C10.0669 11.2793 10.4246 10.7532 10.8849 10.3139C11.3452 9.87455 11.8978 9.53193 12.5068 9.30824C15.2297 8.78487 18.0136 8.60553 20.7861 8.7749C23.5645 8.60581 26.3542 8.78514 29.083 9.30824C29.6876 9.53453 30.2367 9.87615 30.6963 10.3119C31.1559 10.7477 31.5162 11.2683 31.7549 11.8416C32.4932 13.6082 32.3174 17.7749 32.3174 19.7082C32.3174 21.6416 32.4932 25.8249 31.7549 27.5749V27.5916Z" fill="#9C1B1B"/>
</svg>
