<svg width="54" height="71" viewBox="0 0 54 71" fill="none" xmlns="http://www.w3.org/2000/svg">
<path d="M27 68.6667C27 68.6667 52 48.6667 52 27C52 13.1933 40.8067 2 27 2C13.1933 2 2 13.1933 2 27C2 48.6667 27 68.6667 27 68.6667Z" stroke="white" stroke-width="4" stroke-linejoin="round"/>
<path d="M27 37C28.3132 37 29.6136 36.7414 30.8268 36.2388C32.0401 35.7363 33.1425 34.9997 34.0711 34.0711C34.9997 33.1425 35.7362 32.0401 36.2388 30.8268C36.7413 29.6136 37 28.3132 37 27C37 25.6868 36.7413 24.3864 36.2388 23.1732C35.7362 21.9599 34.9997 20.8575 34.0711 19.9289C33.1425 19.0004 32.0401 18.2638 30.8268 17.7612C29.6136 17.2587 28.3132 17 27 17C24.3478 17 21.8043 18.0536 19.9289 19.9289C18.0536 21.8043 17 24.3478 17 27C17 29.6522 18.0536 32.1957 19.9289 34.0711C21.8043 35.9464 24.3478 37 27 37Z" stroke="white" stroke-width="4" stroke-linejoin="round"/>
</svg>
