<svg width="38" height="36" viewBox="0 0 38 36" fill="none" xmlns="http://www.w3.org/2000/svg">
<path fill-rule="evenodd" clip-rule="evenodd" d="M30.8757 7.18741C29.3589 5.74857 27.557 4.60839 25.5735 3.83251C23.5901 3.05664 21.4644 2.66039 19.3188 2.66658C10.3145 2.66658 2.98437 9.58185 2.98071 18.0832C2.97673 20.7903 3.72932 23.45 5.16186 25.7916L2.84375 33.7777L11.5046 31.6339C13.902 32.8654 16.5857 33.5098 19.3123 33.5089H19.3188C28.3225 33.5089 35.6519 26.593 35.6562 18.0923C35.6617 16.0649 35.2419 14.0567 34.4212 12.1846C33.6004 10.3125 32.3953 8.6138 30.8757 7.18741ZM19.3188 30.9069H19.313C16.8824 30.9075 14.4959 30.2908 12.4019 29.1207L11.906 28.843L6.7666 30.1152L8.13843 25.3867L7.81543 24.9006C6.45634 22.8605 5.73627 20.4963 5.73901 18.0832C5.73901 11.0187 11.8335 5.27074 19.324 5.27074C22.9172 5.26466 26.3659 6.61208 28.9114 9.01666C31.457 11.4212 32.891 14.686 32.8979 18.093C32.895 25.1582 26.8035 30.9069 19.3188 30.9069ZM26.7668 21.3103C26.3589 21.1173 24.3498 20.1853 23.9778 20.0569C23.6057 19.9284 23.3311 19.8638 23.0593 20.2499C22.7876 20.636 22.0046 21.4999 21.7666 21.7603C21.5286 22.0207 21.2905 22.0492 20.8826 21.8562C20.4746 21.6631 19.1584 21.2569 17.5991 19.9444C16.3855 18.9228 15.5666 17.6617 15.3286 17.2763C15.0906 16.8909 15.303 16.6819 15.5073 16.4902C15.6912 16.3173 15.9153 16.0402 16.1196 15.8152C16.324 15.5902 16.3921 15.4291 16.5276 15.1721C16.6631 14.9152 16.5957 14.6902 16.4939 14.4978C16.3921 14.3055 15.5754 12.4089 15.2356 11.6374C14.9038 10.886 14.5676 10.9881 14.3171 10.9763C14.0791 10.9652 13.8044 10.9624 13.5342 10.9624C13.3276 10.9675 13.1243 11.0129 12.937 11.0959C12.7498 11.1788 12.5825 11.2974 12.4458 11.4444C12.0715 11.8305 11.0168 12.7638 11.0168 14.6582C11.0168 16.5527 12.4817 18.386 12.6838 18.643C12.886 18.8999 15.5623 22.7909 19.6572 24.4596C20.4176 24.7684 21.1946 25.0391 21.9849 25.2707C22.9626 25.5638 23.8525 25.5228 24.5557 25.4235C25.3401 25.3131 26.9727 24.4916 27.3118 23.5916C27.6509 22.6916 27.6516 21.9207 27.5498 21.7603C27.448 21.5999 27.1755 21.5027 26.7668 21.3103Z" fill="#9C1B1B"/>
</svg>
