<svg width="66" height="30" viewBox="0 0 66 30" fill="none" xmlns="http://www.w3.org/2000/svg">
<path d="M2.85714 15.73V8.71429C2.85714 8.52485 2.9324 8.34316 3.06635 8.20921C3.20031 8.07525 3.38199 8 3.57143 8C3.76087 8 3.94255 8.07525 4.0765 8.20921C4.21046 8.34316 4.28571 8.52485 4.28571 8.71429V15.73C4.70368 15.5822 5.06553 15.3085 5.32139 14.9464C5.57725 14.5844 5.71452 14.1519 5.71429 13.7086V8.71429C5.71429 8.52485 5.78954 8.34316 5.92349 8.20921C6.05745 8.07525 6.23913 8 6.42857 8C6.61801 8 6.79969 8.07525 6.93365 8.20921C7.0676 8.34316 7.14286 8.52485 7.14286 8.71429V13.7086C7.14302 14.5319 6.85873 15.33 6.33808 15.9678C5.81743 16.6056 5.0924 17.0439 4.28571 17.2086V27.2857C4.28571 27.4752 4.21046 27.6568 4.0765 27.7908C3.94255 27.9247 3.76087 28 3.57143 28C3.38199 28 3.20031 27.9247 3.06635 27.7908C2.9324 27.6568 2.85714 27.4752 2.85714 27.2857V17.2086C2.05045 17.0439 1.32543 16.6056 0.804781 15.9678C0.284131 15.33 -0.000167965 14.5319 7.44488e-08 13.7086V8.71429C7.44488e-08 8.52485 0.0752551 8.34316 0.20921 8.20921C0.343164 8.07525 0.524845 8 0.714286 8C0.903726 8 1.08541 8.07525 1.21936 8.20921C1.35332 8.34316 1.42857 8.52485 1.42857 8.71429V13.7086C1.42834 14.1519 1.56561 14.5844 1.82147 14.9464C2.07733 15.3085 2.43917 15.5822 2.85714 15.73ZM12.1429 19.35C10.1157 18.8957 8.57143 16.5457 8.57143 13.7143C8.57143 10.5571 10.49 8 12.8571 8C15.2243 8 17.1429 10.5571 17.1429 13.7143C17.1429 16.5457 15.5986 18.8957 13.5714 19.35V27.2857C13.5714 27.4752 13.4962 27.6568 13.3622 27.7908C13.2283 27.9247 13.0466 28 12.8571 28C12.6677 28 12.486 27.9247 12.3521 27.7908C12.2181 27.6568 12.1429 27.4752 12.1429 27.2857V19.35ZM12.8571 18C14.3314 18 15.7143 16.1571 15.7143 13.7143C15.7143 11.2714 14.3314 9.42857 12.8571 9.42857C11.3829 9.42857 10 11.2714 10 13.7143C10 16.1571 11.3829 18 12.8571 18Z" fill="#F0E8E8"/>
<circle cx="35" cy="15" r="15" fill="#9C1B1B"/>
<path d="M21.321 20V9.09091H27.8622V10.2628H22.642V13.9489H27.3722V15.1207H22.642V20H21.321Z" fill="#F0E8E8"/>
<path d="M32.4744 23.1705C31.7358 23.1705 31.0877 22.9947 30.5302 22.6431C29.9762 22.2915 29.543 21.7997 29.2305 21.1676C28.9215 20.5355 28.767 19.7969 28.767 18.9517C28.767 18.0994 28.9215 17.3555 29.2305 16.7198C29.543 16.0842 29.9762 15.5906 30.5302 15.239C31.0877 14.8874 31.7358 14.7116 32.4744 14.7116C33.2131 14.7116 33.8594 14.8874 34.4134 15.239C34.9709 15.5906 35.4041 16.0842 35.7131 16.7198C36.0256 17.3555 36.1818 18.0994 36.1818 18.9517C36.1818 19.7969 36.0256 20.5355 35.7131 21.1676C35.4041 21.7997 34.9709 22.2915 34.4134 22.6431C33.8594 22.9947 33.2131 23.1705 32.4744 23.1705ZM32.4744 22.0412C33.0355 22.0412 33.4972 21.8974 33.8594 21.6097C34.2216 21.3221 34.4897 20.9439 34.6637 20.4751C34.8377 20.0064 34.9247 19.4986 34.9247 18.9517C34.9247 18.4048 34.8377 17.8952 34.6637 17.4229C34.4897 16.9506 34.2216 16.5689 33.8594 16.2777C33.4972 15.9865 33.0355 15.8409 32.4744 15.8409C31.9134 15.8409 31.4517 15.9865 31.0895 16.2777C30.7273 16.5689 30.4592 16.9506 30.2852 17.4229C30.1112 17.8952 30.0241 18.4048 30.0241 18.9517C30.0241 19.4986 30.1112 20.0064 30.2852 20.4751C30.4592 20.9439 30.7273 21.3221 31.0895 21.6097C31.4517 21.8974 31.9134 22.0412 32.4744 22.0412Z" fill="#F0E8E8"/>
<path d="M41.4744 18.1705C40.7358 18.1705 40.0877 17.9947 39.5302 17.6431C38.9762 17.2915 38.543 16.7997 38.2305 16.1676C37.9215 15.5355 37.767 14.7969 37.767 13.9517C37.767 13.0994 37.9215 12.3555 38.2305 11.7198C38.543 11.0842 38.9762 10.5906 39.5302 10.239C40.0877 9.88743 40.7358 9.71165 41.4744 9.71165C42.2131 9.71165 42.8594 9.88743 43.4134 10.239C43.9709 10.5906 44.4041 11.0842 44.7131 11.7198C45.0256 12.3555 45.1818 13.0994 45.1818 13.9517C45.1818 14.7969 45.0256 15.5355 44.7131 16.1676C44.4041 16.7997 43.9709 17.2915 43.4134 17.6431C42.8594 17.9947 42.2131 18.1705 41.4744 18.1705ZM41.4744 17.0412C42.0355 17.0412 42.4972 16.8974 42.8594 16.6097C43.2216 16.3221 43.4897 15.9439 43.6637 15.4751C43.8377 15.0064 43.9247 14.4986 43.9247 13.9517C43.9247 13.4048 43.8377 12.8952 43.6637 12.4229C43.4897 11.9506 43.2216 11.5689 42.8594 11.2777C42.4972 10.9865 42.0355 10.8409 41.4744 10.8409C40.9134 10.8409 40.4517 10.9865 40.0895 11.2777C39.7273 11.5689 39.4592 11.9506 39.2852 12.4229C39.1112 12.8952 39.0241 13.4048 39.0241 13.9517C39.0241 14.4986 39.1112 15.0064 39.2852 15.4751C39.4592 15.9439 39.7273 16.3221 40.0895 16.6097C40.4517 16.8974 40.9134 17.0412 41.4744 17.0412Z" fill="#F0E8E8"/>
<path d="M50.2401 23.1705C49.5582 23.1705 48.9563 22.9982 48.4343 22.6538C47.9123 22.3058 47.5039 21.8157 47.2092 21.1836C46.9144 20.5479 46.767 19.7969 46.767 18.9304C46.767 18.071 46.9144 17.3253 47.2092 16.6932C47.5039 16.0611 47.9141 15.5728 48.4396 15.2283C48.9652 14.8839 49.5724 14.7116 50.2614 14.7116C50.794 14.7116 51.2148 14.8004 51.5238 14.978C51.8363 15.152 52.0742 15.3509 52.2376 15.5746C52.4045 15.7947 52.5341 15.9759 52.6264 16.1179H52.733V12.0909H53.9901V23H52.7756V21.7429H52.6264C52.5341 21.892 52.4027 22.0803 52.2322 22.3075C52.0618 22.5312 51.8185 22.7319 51.5025 22.9094C51.1864 23.0835 50.7656 23.1705 50.2401 23.1705ZM50.4105 22.0412C50.9148 22.0412 51.3409 21.9098 51.6889 21.647C52.0369 21.3807 52.3015 21.0131 52.4826 20.5444C52.6637 20.0721 52.7543 19.527 52.7543 18.9091C52.7543 18.2983 52.6655 17.7638 52.4879 17.3058C52.3104 16.8441 52.0476 16.4854 51.6996 16.2298C51.3516 15.9705 50.9219 15.8409 50.4105 15.8409C49.8778 15.8409 49.4339 15.9776 49.0788 16.2511C48.7273 16.521 48.4627 16.8885 48.2852 17.3537C48.1112 17.8153 48.0241 18.3338 48.0241 18.9091C48.0241 19.4915 48.1129 20.0206 48.2905 20.4964C48.4716 20.9687 48.7379 21.3452 49.0895 21.6257C49.4446 21.9027 49.8849 22.0412 50.4105 22.0412Z" fill="#F0E8E8"/>
<path d="M57.9602 20.0682C57.7472 20.0682 57.5572 20.0504 57.3903 20.0149C57.2234 19.983 57.108 19.951 57.044 19.919L57.3636 18.8111C57.669 18.8892 57.9389 18.9176 58.1733 18.8963C58.4077 18.875 58.6154 18.7702 58.7965 18.582C58.9812 18.3974 59.1499 18.0973 59.3026 17.6818L59.5369 17.0426L56.5114 8.81818H57.875L60.1335 15.3381H60.2188L62.4773 8.81818H63.8409L60.3679 18.1932C60.2116 18.6158 60.0181 18.9656 59.7873 19.2425C59.5565 19.5231 59.2884 19.7308 58.983 19.8658C58.6811 20.0007 58.3402 20.0682 57.9602 20.0682Z" fill="#F0E8E8"/>
</svg>
