<svg width="150" height="105" viewBox="0 0 150 105" fill="none" xmlns="http://www.w3.org/2000/svg">
<path d="M100.015 2.11168C108.254 -0.480114 118.78 0.249617 125.574 2.11167C132.368 3.97373 141.064 8.17916 145.883 15.4794C149.705 21.2674 150.469 25.4875 149.766 32.0553C149.075 38.5068 147.402 42.4127 142.648 47.5618C136.994 53.6864 122.589 58.256 122.589 58.256C122.589 58.256 127.515 70.6986 132.295 78.0401C136.779 84.9254 145.883 94.6161 145.883 94.6161L130.354 104.241L107.707 86.5955C97.2647 76.5995 91.3957 70.4913 85.3837 58.256L85.3691 58.2263C81.8718 51.1087 79.8177 46.9283 78.9131 39.2739C78.0074 31.6089 78.9132 25.2943 81.5014 17.6182C84.3805 9.07922 90.3941 5.1381 100.015 2.11168Z" fill="#9C1B1B"/>
<path d="M21.4431 2.11168C29.6823 -0.480114 40.2078 0.249617 47.0018 2.11168C53.7959 3.97373 62.492 8.17916 67.3117 15.4794C71.1331 21.2674 71.897 25.4875 71.194 32.0553C70.5035 38.5068 68.8305 42.4127 64.0764 47.5618C58.4218 53.6864 44.0177 58.256 44.0177 58.256C44.0177 58.256 48.9429 70.6986 53.7235 78.0401C58.207 84.9254 67.3117 94.6161 67.3117 94.6161L51.7823 104.241L29.1354 86.5955C18.6929 76.5995 12.8239 70.4913 6.81194 58.256L6.79741 58.2264C3.30005 51.1088 1.24591 46.9283 0.34137 39.2739C-0.564423 31.6089 0.34137 25.2943 2.9296 17.6182C5.80875 9.07922 11.8223 5.1381 21.4431 2.11168Z" fill="#9C1B1B"/>
</svg>
